<svg version="1.0" xmlns="http://www.w3.org/2000/svg" width="700pt" height="700pt" viewBox="0 0 700 700"><g transform="translate(0.000000,700.000000) scale(0.100000,-0.100000)" fill="#000" stroke="none"><path d="M1065 6993c-87-18-183-58-245-102-63-44-147-141-179-205-60-123-58-49-56-1621l1-1440 26-72c41-116 113-207 217-276 73-49 132-74 219-92 48-10-24-12-448-13-278-1-526-1-553-2H0l2-272 3-273 640-1c352-1 647-2 655-3 13-1 15-129 13-1108-1-936 1-1118 13-1172 35-154 139-266 299-321 57-20 81-20 1889-17 1762 2 1833 3 1881 21 113 42 220 148 267 265l23 56v1135c0 624 3 1137 7 1140 3 3 299 5 657 5h651v272 273l-312 1c-172 0-418 0-547-1-129 0-233 2-230 4 2 2 22 7 44 10 202 32 397 216 446 421 18 76 21 2865 3 2953-39 191-178 337-399 419-48 17-145 18-2485 19-1339 1-2444 0-2455-3zm1341-4805v-218h-218-218v218 218l218-1h217l1-217zm655 207c4-51 3-409-2-416-3-5-96-8-220-7l-214 3-1 205c0 113 1 210 3 216 5 14 433 14 434-1zm656-207 3-218h-219-219v212c-1 117 1 215 3 218 2 4 1e2 6 217 6l213-1 2-217zm654 212c1-3 2-101 3-217l1-213h-217c-201 0-218 1-219 18-1 24-1 406 0 413s431 6 432-1zm659-212v-218h-218-218l1 213c1 116 3 215 4 218 0 3 98 5 216 5h215v-218zm-2624-655-1-218-217-2-218-2v219 220h218 218v-217zm655 195c1-28 1-353 0-390l-1-27-217 2-218 2-1 205c0 113 2 211 4 218 3 9 56 12 218 12h214l1-22zm658-196v-218l-219-1h-219v219 218h219 218l1-218zm656-2v-215l-218-2c-119 0-217 2-218 5-1 9-1 404 0 420 1 10 48 12 219 10l217-3v-215zm655 1v-220l-217 2-218 2-1 218-1 217h219 218v-219zm-659-661c1-3 2-99 3-213 1-178-1-210-14-216-11-5-1665-7-1725-2-6 1-10 80-10 216 0 179 2 215 14 217 26 5 1731 3 1732-2z"/></g></svg>