<?xml version="1.0" standalone="no"?>
<!DOCTYPE svg PUBLIC "-//W3C//DTD SVG 20010904//EN"
 "http://www.w3.org/TR/2001/REC-SVG-20010904/DTD/svg10.dtd">
<svg version="1.0" xmlns="http://www.w3.org/2000/svg"
 width="700.000000pt" height="700.000000pt" viewBox="0 0 700.000000 700.000000"
 preserveAspectRatio="xMidYMid meet">
<metadata>
Created by potrace 1.14, written by Peter Selinger 2001-2017
</metadata>
<g transform="translate(0.000000,700.000000) scale(0.100000,-0.100000)"
fill="#000000" stroke="none">
<path d="M1065 6993 c-87 -18 -183 -58 -245 -102 -63 -44 -147 -141 -179 -205
-60 -123 -58 -49 -56 -1621 l1 -1440 26 -72 c41 -116 113 -207 217 -276 73
-49 132 -74 219 -92 48 -10 -24 -12 -448 -13 -278 -1 -526 -1 -553 -2 l-47 0
2 -272 3 -273 640 -1 c352 -1 647 -2 655 -3 13 -1 15 -129 13 -1108 -1 -936 1
-1118 13 -1172 35 -154 139 -266 299 -321 57 -20 81 -20 1889 -17 1762 2 1833
3 1881 21 113 42 220 148 267 265 l23 56 0 1135 c0 624 3 1137 7 1140 3 3 299
5 657 5 l651 0 0 272 0 273 -312 1 c-172 0 -418 0 -547 -1 -129 0 -233 2 -230
4 2 2 22 7 44 10 202 32 397 216 446 421 18 76 21 2865 3 2953 -39 191 -178
337 -399 419 -48 17 -145 18 -2485 19 -1339 1 -2444 0 -2455 -3z m1341 -4805
l0 -218 -218 0 -218 0 0 218 0 218 218 -1 217 0 1 -217z m655 207 c4 -51 3
-409 -2 -416 -3 -5 -96 -8 -220 -7 l-214 3 -1 205 c0 113 1 210 3 216 5 14
433 14 434 -1z m656 -207 l3 -218 -219 0 -219 0 0 212 c-1 117 1 215 3 218 2
4 100 6 217 6 l213 -1 2 -217z m654 212 c1 -3 2 -101 3 -217 l1 -213 -217 0
c-201 0 -218 1 -219 18 -1 24 -1 406 0 413 1 7 431 6 432 -1z m659 -212 l0
-218 -218 0 -218 0 1 213 c1 116 3 215 4 218 0 3 98 5 216 5 l215 0 0 -218z
m-2624 -655 l-1 -218 -217 -2 -218 -2 0 219 0 220 218 0 218 0 0 -217z m655
195 c1 -28 1 -353 0 -390 l-1 -27 -217 2 -218 2 -1 205 c0 113 2 211 4 218 3
9 56 12 218 12 l214 0 1 -22z m658 -196 l0 -218 -219 -1 -219 0 0 219 0 218
219 0 218 0 1 -218z m656 -2 l0 -215 -218 -2 c-119 0 -217 2 -218 5 -1 9 -1
404 0 420 1 10 48 12 219 10 l217 -3 0 -215z m655 1 l0 -220 -217 2 -218 2 -1
218 -1 217 219 0 218 0 0 -219z m-659 -661 c1 -3 2 -99 3 -213 1 -178 -1 -210
-14 -216 -11 -5 -1665 -7 -1725 -2 -6 1 -10 80 -10 216 0 179 2 215 14 217 26
5 1731 3 1732 -2z"/>
</g>
</svg>
